# xmcd
#
# Track frame offsets: 
#        150
#        26347
#        48622
#        72624
#        104012
#        120076
#        146374
#        182963
#        200282
#        227304
#
# Disc length: 3317 seconds
#
# Revision: 0
# Processed by: cddbd v1.5.2PL0 Copyright (c) Steve Scherf et al.
# Submitted via: ExactAudioCopyFreeDBPlugin 1.0
#
DISCID=850cf30a
DTITLE=The Weeknd - Thursday
DYEAR=2012
DGENRE=R&B
TTITLE0=Lonely Star
TTITLE1=Life Of The Party
TTITLE2=Thursday
TTITLE3=The Zone Feat. Drake
TTITLE4=The Birds Part One
TTITLE5=The Birds Part Two
TTITLE6=Gone
TTITLE7=Rolling Stone
TTITLE8=Heaven Or Las Vegas
TTITLE9=Valerie
EXTD=
EXTT0=
EXTT1=
EXTT2=
EXTT3=
EXTT4=
EXTT5=
EXTT6=
EXTT7=
EXTT8=
EXTT9=
PLAYORDER=
